<?xml version="1.0" encoding="UTF-8"?>
<svg version="1.1" xmlns="http://www.w3.org/2000/svg" width="500" height="500">
<path d="M0 0 C0.93866209 2.53518992 1.0946871 3.72162578 0.21142578 6.31835938 C-0.41530029 7.56842773 -0.41530029 7.56842773 -1.0546875 8.84375 C-1.50457031 9.76027344 -1.95445312 10.67679688 -2.41796875 11.62109375 C-2.89878906 12.57113281 -3.37960937 13.52117187 -3.875 14.5 C-4.81308247 16.38383319 -5.74810331 18.26919485 -6.6796875 20.15625 C-7.09976074 20.98962891 -7.51983398 21.82300781 -7.95263672 22.68164062 C-8.90669274 24.79346254 -9.52694842 26.73820182 -10 29 C-8.97261719 29.4846875 -7.94523438 29.969375 -6.88671875 30.46875 C1.70895673 34.59650509 9.55969327 38.95994238 17 45 C17.77730469 45.62519531 18.55460938 46.25039062 19.35546875 46.89453125 C25.35554293 51.96516192 30.2048012 57.79897986 35 64 C35.60070312 64.68578125 36.20140625 65.3715625 36.8203125 66.078125 C38 68 38 68 38.1484375 70.0859375 C36.26006311 73.23322815 32.97609386 73.67822255 29.625 74.625 C24.07921909 76.25579355 24.07921909 76.25579355 19 79 C15.95470922 78.84297719 14.51506812 78.56528727 12.4375 76.28515625 C11.963125 75.55167969 11.48875 74.81820312 11 74.0625 C3.95371906 64.46366176 -6.98485499 57.30115186 -18 53 C-18.99 53 -19.98 53 -21 53 C-22.89637908 57.10391471 -24.79200128 61.20817861 -26.6875 65.3125 C-27.21794922 66.46041016 -27.74839844 67.60832031 -28.29492188 68.79101562 C-28.82021484 69.92861328 -29.34550781 71.06621094 -29.88671875 72.23828125 C-30.60154419 73.7857605 -30.60154419 73.7857605 -31.33081055 75.36450195 C-33.56778547 80.23663792 -35.78154666 85.11940265 -38 90 C-25.625 89.505 -25.625 89.505 -13 89 C-11.86703049 93.53187802 -12.08860648 93.85889021 -14.32421875 97.6484375 C-14.85233154 98.56020752 -15.38044434 99.47197754 -15.92456055 100.41137695 C-16.50633057 101.38937256 -17.08810059 102.36736816 -17.6875 103.375 C-18.89739236 105.45873097 -20.10568798 107.54338976 -21.3125 109.62890625 C-21.92996094 110.68996582 -22.54742187 111.75102539 -23.18359375 112.84423828 C-25.93396567 117.62263982 -28.56483334 122.46317083 -31.1875 127.3125 C-34.71424751 133.81224132 -38.26666901 140.29520353 -41.875 146.75 C-46.15607535 154.41904051 -50.33666094 162.14159837 -54.5 169.875 C-55.11214355 171.01163086 -55.72428711 172.14826172 -56.35498047 173.31933594 C-59.75173716 179.62114487 -59.75173716 179.62114487 -63 186 C-40.68207524 188.64788938 -20.63959694 186.88223186 -1.828125 173.79296875 C3.4947419 169.59496184 8.04952332 164.99041222 12.34375 159.75 C14 158 14 158 17 157 C18.66666667 158 20.33333333 159 22 160 C24.73150992 160.90021249 27.51081647 161.54403917 30.3125 162.1875 C31.42334961 162.45336914 31.42334961 162.45336914 32.55664062 162.72460938 C34.36930342 163.15730953 36.18442027 163.57970716 38 164 C36.53534719 175.07277525 23.73342599 185.61997026 15.23632812 192.40917969 C-0.17400264 203.99595691 -19.63480753 211.31477011 -39 212 C-40.06476563 212.03996094 -41.12953125 212.07992187 -42.2265625 212.12109375 C-54.06578148 212.34422759 -65.45982523 210.49948486 -77 208 C-77.10868408 208.71986084 -77.21736816 209.43972168 -77.3293457 210.18139648 C-78.05480687 213.23034047 -79.15642666 215.39362349 -80.73046875 218.09765625 C-81.28387939 219.05921631 -81.83729004 220.02077637 -82.4074707 221.01147461 C-82.99488037 222.01831299 -83.58229004 223.02515137 -84.1875 224.0625 C-88.71506337 231.93370381 -93.12903897 239.78083617 -97 248 C-97.66 248 -98.32 248 -99 248 C-99 248.66 -99 249.32 -99 250 C-99.66 249.67 -100.32 249.34 -101 249 C-97.26934067 239.04705942 -93.17379538 229.29454112 -88.92773438 219.55053711 C-88.13159483 217.72098374 -87.33918083 215.8898106 -86.546875 214.05859375 C-86.08120117 212.98923584 -85.61552734 211.91987793 -85.13574219 210.81811523 C-84.21442385 208.53204954 -83.50541903 206.40436089 -83 204 C-84.27617187 203.61521484 -84.27617187 203.61521484 -85.578125 203.22265625 C-96.26071029 199.40570511 -105.01308825 192.90568892 -113 185 C-113.78117187 184.2678125 -114.56234375 183.535625 -115.3671875 182.78125 C-129.32861619 169.43092762 -137.3163336 152.77213048 -141 134 C-141.19207031 133.05253906 -141.38414062 132.10507813 -141.58203125 131.12890625 C-144.85733464 106.61004627 -138.52725338 82.12875896 -123.76123047 62.33984375 C-107.24708383 40.89322318 -84.1278429 27.47212056 -57.44824219 23.30908203 C-44.38239369 21.65956426 -31.79037164 23.24867806 -19 26 C-17.66521228 24.08433243 -16.33193936 22.16764735 -15 20.25 C-14.59644287 19.66959961 -14.19288574 19.08919922 -13.77709961 18.49121094 C-10.30144802 13.47497458 -6.94736338 8.38744569 -3.62890625 3.265625 C-2 1 -2 1 0 0 Z M-96 67 C-109.39672634 80.02276189 -116.99016135 95.66927627 -117.54101562 114.33227539 C-117.66761506 133.73507818 -113.17757046 150.27388595 -99.37890625 164.65625 C-98.59386719 165.4296875 -97.80882812 166.203125 -97 167 C-96.20464844 167.7940625 -95.40929687 168.588125 -94.58984375 169.40625 C-88.9206266 174.79694776 -81.24058525 182 -73 182 C-72.52691406 180.85748779 -72.05382812 179.71497559 -71.56640625 178.5378418 C-69.77025713 174.20053159 -67.97336242 169.86353057 -66.17626953 165.52661133 C-65.40621697 163.66796848 -64.63635287 161.80924753 -63.86669922 159.95043945 C-63.11894302 158.14458379 -62.37089559 156.3388487 -61.62255859 154.53323364 C-60.87340906 152.72534828 -60.12503814 150.91714009 -59.37744141 149.10861206 C-57.49927484 144.57404579 -55.59855007 140.05123473 -53.65234375 135.54541016 C-53.09353516 134.24444145 -53.09353516 134.24444145 -52.5234375 132.91719055 C-51.81731048 131.27684025 -51.10537682 129.6389732 -50.38671875 128.0040741 C-50.0721875 127.27158951 -49.75765625 126.53910492 -49.43359375 125.78442383 C-49.15572021 125.14741043 -48.87784668 124.51039703 -48.59155273 123.8540802 C-47.79736095 121.6892369 -47.79736095 121.6892369 -48 118 C-59.37204047 117.84701291 -70.65019611 118.31583529 -82 119 C-80.53067956 114.73423099 -78.28201452 111.34663993 -75.625 107.75 C-74.71816487 106.50172695 -73.81194129 105.25300946 -72.90625 104.00390625 C-72.43058594 103.3505127 -71.95492187 102.69711914 -71.46484375 102.02392578 C-68.98706652 98.60046357 -66.55732305 95.14333122 -64.125 91.6875 C-63.10817334 90.24472088 -62.09124541 88.80201314 -61.07421875 87.359375 C-60.56681152 86.63943359 -60.0594043 85.91949219 -59.53662109 85.17773438 C-58.01254718 83.01778215 -56.48530386 80.86010802 -54.95703125 78.703125 C-51.96235001 74.47505587 -48.97769271 70.24004897 -46 66 C-45.4735791 65.25137695 -44.9471582 64.50275391 -44.40478516 63.73144531 C-42.84772512 61.51222001 -41.29777925 59.28820505 -39.75 57.0625 C-39.27167725 56.38179443 -38.79335449 55.70108887 -38.30053711 54.99975586 C-35.83738154 51.79920502 -35.83738154 51.79920502 -35 48 C-57.41086825 44.41813337 -79.32468151 51.86518905 -96 67 Z " fill="#92170E" transform="translate(281,112)"/>
<path d="M0 0 C0 4.44677621 -0.56255361 5.28355681 -3.0625 8.765625 C-3.69414062 9.65507812 -4.32578125 10.54453125 -4.9765625 11.4609375 C-5.64429688 12.38132813 -6.31203125 13.30171875 -7 14.25 C-7.66773438 15.18585938 -8.33546875 16.12171875 -9.0234375 17.0859375 C-10.67401904 19.39675165 -12.33305139 21.70097893 -14 24 C-14.495 23.01 -14.495 23.01 -15 22 C-37.97346925 21.10686297 -58.61919064 26.27036753 -76 42 C-88.97531723 54.57571507 -96.01105985 70.37731952 -96.54101562 88.33227539 C-96.66788629 107.77664633 -92.15516586 124.33663025 -78.30078125 138.7265625 C-77.54152344 139.47679687 -76.78226563 140.22703125 -76 141 C-75.31292969 141.70898438 -74.62585938 142.41796875 -73.91796875 143.1484375 C-67.77067726 149.1018441 -60.70097349 152.49457821 -53 156 C-55.31139169 164.61703042 -58.60795466 172.76688023 -62 181 C-62.33 180.01 -62.66 179.02 -63 178 C-64.98014432 177.27648573 -66.98529436 176.62081046 -69 176 C-78.1859253 171.46145634 -85.70552824 166.22029069 -93 159 C-93.78117187 158.2678125 -94.56234375 157.535625 -95.3671875 156.78125 C-109.32861619 143.43092762 -117.3163336 126.77213048 -121 108 C-121.19207031 107.05253906 -121.38414062 106.10507813 -121.58203125 105.12890625 C-124.85733464 80.61004627 -118.52725338 56.12875896 -103.76123047 36.33984375 C-87.24851537 14.89508229 -64.1301865 1.47263026 -37.45263672 -2.69091797 C-24.69742834 -4.29833324 -12.45020424 -2.88501284 0 0 Z " fill="#E68123" transform="translate(261,138)"/>
<path d="M0 0 C1.9609375 0.671875 1.9609375 0.671875 4.375 1.75 C10.10898292 4.1643086 15.94426535 5.62653441 22 7 C20.53534719 18.07277525 7.73342599 28.61997026 -0.76367188 35.40917969 C-16.17400264 46.99595691 -35.63480753 54.31477011 -55 55 C-56.59714844 55.05994141 -56.59714844 55.05994141 -58.2265625 55.12109375 C-70.06578148 55.34422759 -81.45982523 53.49948486 -93 51 C-84.42553191 34.85106383 -84.42553191 34.85106383 -80 27 C-79.67 27.66 -79.34 28.32 -79 29 C-59.15453356 33.23263469 -38.1030263 29.5904369 -21 19 C-14.31740154 14.3501624 -8.76833944 8.98869754 -3.55859375 2.75 C-2 1 -2 1 0 0 Z " fill="#E58123" transform="translate(297,269)"/>
<path d="M0 0 C18.95649298 9.15715156 33.98098864 19.02103935 47 36 C47.598125 36.68320313 48.19625 37.36640625 48.8125 38.0703125 C50 40 50 40 50.1484375 42.0859375 C48.26006311 45.23322815 44.97609386 45.67822255 41.625 46.625 C36.07921909 48.25579355 36.07921909 48.25579355 31 51 C27.95470922 50.84297719 26.51506812 50.56528727 24.4375 48.28515625 C23.963125 47.55167969 23.48875 46.81820312 23 46.0625 C16.02093921 36.55523281 4.98874311 29.12706993 -6 25 C-7.32 25 -8.64 25 -10 25 C-7.37589493 16.35588919 -3.68616238 8.23074615 0 0 Z " fill="#E68123" transform="translate(269,140)"/>
<path d="M0 0 C0.495 0.99 0.495 0.99 1 2 C-0.1081543 4.53442383 -0.1081543 4.53442383 -1.82421875 7.70703125 C-2.44103516 8.85107422 -3.05785156 9.99511719 -3.69335938 11.17382812 C-4.02102295 11.77138916 -4.34868652 12.3689502 -4.6862793 12.98461914 C-5.67512216 14.78990237 -6.65001252 16.60217282 -7.62304688 18.41601562 C-10.46028286 23.64157642 -13.25095252 28.37869411 -17 33 C-17.80823519 34.33580674 -18.57700671 35.69660229 -19.296875 37.08203125 C-19.69366455 37.84032227 -20.0904541 38.59861328 -20.49926758 39.37988281 C-20.91200928 40.18264648 -21.32475098 40.98541016 -21.75 41.8125 C-22.19045654 42.65780273 -22.63091309 43.50310547 -23.0847168 44.37402344 C-25.40890694 48.85161256 -27.67734007 53.3527868 -29.8972168 57.8828125 C-34.15844242 66.57575823 -38.87139524 74.97947781 -43.6965332 83.37207031 C-44.50997192 84.79084473 -44.50997192 84.79084473 -45.33984375 86.23828125 C-45.82831787 87.08430908 -46.31679199 87.93033691 -46.82006836 88.80200195 C-48.11780055 91.06992291 -48.11780055 91.06992291 -49 94 C-49.66 94 -50.32 94 -51 94 C-51 94.66 -51 95.32 -51 96 C-51.66 95.67 -52.32 95.34 -53 95 C-49.55971056 85.8531685 -45.87218408 76.84785296 -42 67.875 C-41.49210938 66.69035156 -40.98421875 65.50570312 -40.4609375 64.28515625 C-38.13170799 58.86820454 -35.77040106 53.47380046 -33.296875 48.12109375 C-31.3488476 43.86308489 -29.7319349 39.62873083 -28.25 35.1875 C-24.64048884 24.60411761 -20.30858637 14.31384053 -16 4 C-14.79371992 6.33214148 -13.8345262 8.49642139 -13 11 C-13.99 11.66 -14.98 12.32 -16 13 C-15.34 13.99 -14.68 14.98 -14 16 C-14.495 16.495 -14.495 16.495 -15 17 C-14.505 17.99 -14.505 17.99 -14 19 C-13.01 19 -12.02 19 -11 19 C-11.495 17.515 -11.495 17.515 -12 16 C-10.68 16 -9.36 16 -8 16 C-8.01160156 15.40832031 -8.02320313 14.81664062 -8.03515625 14.20703125 C-8.08322386 9.99768215 -8.06006883 6.1077667 -7 2 C-6.21625 1.855625 -5.4325 1.71125 -4.625 1.5625 C-2.03578982 1.12201075 -2.03578982 1.12201075 0 0 Z " fill="#8F1B0E" transform="translate(233,266)"/>
<path d="M0 0 C0.680625 0.7425 0.680625 0.7425 1.375 1.5 C2.87635519 3.22609337 2.87635519 3.22609337 5 3 C4.41225315 6.89289701 3.24525703 9.70357469 1.26953125 13.09765625 C0.71612061 14.05921631 0.16270996 15.02077637 -0.4074707 16.01147461 C-0.99488037 17.01831299 -1.58229004 18.02515137 -2.1875 19.0625 C-6.71506337 26.93370381 -11.12903897 34.78083617 -15 43 C-15.66 43 -16.32 43 -17 43 C-17 43.66 -17 44.32 -17 45 C-17.66 44.67 -18.32 44.34 -19 44 C-15.73383849 35.31632402 -12.27143855 26.74460067 -8.60571289 18.22119141 C-7.79883062 16.34318471 -6.99789975 14.46270892 -6.19726562 12.58203125 C-5.42866211 10.78958984 -5.42866211 10.78958984 -4.64453125 8.9609375 C-4.18409424 7.88634277 -3.72365723 6.81174805 -3.24926758 5.70458984 C-2 3 -2 3 0 0 Z " fill="#801D19" transform="translate(199,317)"/>
<path d="M0 0 C16.8929385 8.261959 16.8929385 8.261959 24 13 C22.68 13.33 21.36 13.66 20 14 C20 13.34 20 12.68 20 12 C19.030625 11.87625 18.06125 11.7525 17.0625 11.625 C16.051875 11.41875 15.04125 11.2125 14 11 C13.67 10.34 13.34 9.68 13 9 C11.906875 9.20625 10.81375 9.4125 9.6875 9.625 C6 10 6 10 3 8 C0.93064669 7.7866052 0.93064669 7.7866052 -0.5 9.25 C-4.15065633 13.50909905 -4.455582 17.55582004 -5 23 C-6.65 23.66 -8.3 24.32 -10 25 C-7.37589493 16.35588919 -3.68616238 8.23074615 0 0 Z " fill="#DC7B33" transform="translate(269,140)"/>
<path d="M0 0 C0 0.99 0 1.98 0 3 C-1.216875 2.67 -2.43375 2.34 -3.6875 2 C-6.8853329 1.18920194 -9.69028419 0.89970558 -13 1 C-13.495 0.505 -13.495 0.505 -14 0 C-17.30516934 -0.25035974 -20.62396041 -0.18521952 -23.9375 -0.1875 C-24.87013672 -0.19974609 -25.80277344 -0.21199219 -26.76367188 -0.22460938 C-27.65505859 -0.22654297 -28.54644531 -0.22847656 -29.46484375 -0.23046875 C-30.69642212 -0.23663208 -30.69642212 -0.23663208 -31.95288086 -0.24291992 C-34.22517224 -0.1873988 -34.22517224 -0.1873988 -36 2 C-42.08829404 3.42491988 -47.8369455 2.72440966 -54 2 C-54 1.67 -54 1.34 -54 1 C-35.34354552 -3.67978254 -18.76989708 -4.34943822 0 0 Z " fill="#D08544" transform="translate(261,138)"/>
<path d="M0 0 C0 2 0 2 -2 4.5625 C-5.14708993 7.11951057 -6.91166895 7.56267995 -10.89453125 7.82421875 C-13.03634152 8.00303408 -14.92931433 8.43452788 -17 9 C-28.49019877 11.96093584 -41.32013159 11.94664474 -53 10 C-53 9.34 -53 8.68 -53 8 C-53.66 7.67 -54.32 7.34 -55 7 C-54.3915625 7.0721875 -53.783125 7.144375 -53.15625 7.21875 C-36.05253006 9.02973211 -19.73726406 8.92516071 -4.07421875 0.98828125 C-2 0 -2 0 0 0 Z " fill="#D48643" transform="translate(273,291)"/>
<path d="M0 0 C0.87785156 0.36480469 1.75570313 0.72960937 2.66015625 1.10546875 C3.53542969 1.46253906 4.41070312 1.81960938 5.3125 2.1875 C7.72265625 3.29296875 7.72265625 3.29296875 10.72265625 5.29296875 C9.62953125 5.41671875 8.53640625 5.54046875 7.41015625 5.66796875 C3.64883823 6.04761676 3.64883823 6.04761676 0.72265625 8.29296875 C-0.26734375 7.96296875 -1.25734375 7.63296875 -2.27734375 7.29296875 C-2.93734375 8.94296875 -3.59734375 10.59296875 -4.27734375 12.29296875 C-5.26734375 12.29296875 -6.25734375 12.29296875 -7.27734375 12.29296875 C-8.26734375 12.78796875 -8.26734375 12.78796875 -9.27734375 13.29296875 C-10.15234375 10.73046875 -10.15234375 10.73046875 -10.27734375 7.29296875 C-7.97829221 3.60849527 -4.72619871 -1.46731041 0 0 Z " fill="#E68226" transform="translate(299.27734375,269.70703125)"/>
<path d="M0 0 C0.66 0 1.32 0 2 0 C1.85925049 0.64904297 1.71850098 1.29808594 1.57348633 1.96679688 C0.11707548 9.20199436 -0.33510581 16.13050649 -0.3125 23.5 C-0.32861328 24.55058594 -0.34472656 25.60117188 -0.36132812 26.68359375 C-0.36530925 33.12505078 0.43736248 38.61318633 2.45239258 44.74023438 C3 47 3 47 2 50 C2 49.34 2 48.68 2 48 C1.0409375 47.814375 1.0409375 47.814375 0.0625 47.625 C-0.618125 47.41875 -1.29875 47.2125 -2 47 C-2.33 46.34 -2.66 45.68 -3 45 C-2.01 45 -1.02 45 0 45 C-0.309375 44.34 -0.61875 43.68 -0.9375 43 C-2.24960255 39.29523985 -2.60264135 35.90736009 -3 32 C-3.33 32 -3.66 32 -4 32 C-5.03863773 25.76817361 -4.83288874 20.25307239 -4 14 C-3.67 14 -3.34 14 -3 14 C-2.87625 12.989375 -2.7525 11.97875 -2.625 10.9375 C-2.01914665 7.12062388 -1.12806088 3.68499888 0 0 Z " fill="#CF843D" transform="translate(165,206)"/>
<path d="M0 0 C1 2 1 2 1 6 C-0.875 8.25 -0.875 8.25 -3 10 C-3.66 10 -4.32 10 -5 10 C-5.10441406 10.57234375 -5.20882812 11.1446875 -5.31640625 11.734375 C-6.11159499 14.36985768 -7.27901491 16.06031308 -8.9375 18.25 C-9.46214844 18.95640625 -9.98679688 19.6628125 -10.52734375 20.390625 C-11.01332031 20.92171875 -11.49929687 21.4528125 -12 22 C-12.66 22 -13.32 22 -14 22 C-13.814375 23.11375 -13.62875 24.2275 -13.4375 25.375 C-13 29 -13 29 -14 31 C-16.31 31 -18.62 31 -21 31 C-19.72779695 28.34987972 -18.34775782 25.91543495 -16.6796875 23.49609375 C-16.23020752 22.84253906 -15.78072754 22.18898437 -15.31762695 21.515625 C-14.84156006 20.82984375 -14.36549316 20.1440625 -13.875 19.4375 C-13.38797607 18.73238281 -12.90095215 18.02726562 -12.39916992 17.30078125 C-8.35607491 11.46716326 -4.21996013 5.70722401 0 0 Z " fill="#8C2220" transform="translate(220,198)"/>
<path d="M0 0 C2.50892579 2.50892579 2.87501247 3.45227711 3 7 C1.8308796 9.88261721 0.24612852 12.4761918 -1.375 15.125 C-2.21817466 16.54306647 -3.0594018 17.96229319 -3.8984375 19.3828125 C-4.27661621 20.00559082 -4.65479492 20.62836914 -5.04443359 21.27001953 C-6.15066531 23.14885887 -6.15066531 23.14885887 -7 26 C-7.66 26 -8.32 26 -9 26 C-9 26.66 -9 27.32 -9 28 C-9.66 27.67 -10.32 27.34 -11 27 C-7.57712062 17.88241863 -3.89382182 8.92501429 0 0 Z " fill="#802527" transform="translate(191,334)"/>
<path d="M0 0 C1.53329364 2.04439152 3.06290169 4.09510335 4.47265625 6.2265625 C11.54691228 16.89878168 19.90573453 24.63028865 31 31 C28 32 28 32 26.17578125 31.22265625 C24.45052083 30.1484375 22.72526042 29.07421875 21 28 C21 27.34 21 26.68 21 26 C19.68 26 18.36 26 17 26 C17 25.34 17 24.68 17 24 C16.40703125 23.7421875 15.8140625 23.484375 15.203125 23.21875 C12.82339035 21.90230105 11.49021208 20.57419218 9.75 18.5 C9.22921875 17.8915625 8.7084375 17.283125 8.171875 16.65625 C7 15 7 15 7 13 C6.34 13 5.68 13 5 13 C5 12.01 5 11.02 5 10 C3.68 10 2.36 10 1 10 C0.67 6.7 0.34 3.4 0 0 Z " fill="#D0843F" transform="translate(170,260)"/>
<path d="M0 0 C0 0.99 0 1.98 0 3 C0.66 3 1.32 3 2 3 C0.87548273 5.9719385 -0.22293791 8.33440687 -2 11 C-2.99 11 -3.98 11 -5 11 C-5.144375 11.61875 -5.28875 12.2375 -5.4375 12.875 C-6 15 -6 15 -7 17 C-7.99 17 -8.98 17 -10 17 C-9.67 15.35 -9.34 13.7 -9 12 C-8.01 11.67 -7.02 11.34 -6 11 C-6.495 10.195625 -6.495 10.195625 -7 9.375 C-8.22699204 6.4608939 -8.14233286 4.13132292 -8 1 C-7.34 1.33 -6.68 1.66 -6 2 C-1.73333333 0 -1.73333333 0 0 0 Z " fill="#92170D" transform="translate(216,291)"/>
<path d="M0 0 C0.99 0.66 1.98 1.32 3 2 C2.25 6.75 2.25 6.75 0 9 C-0.45662153 11.19291082 -0.820412 13.40585889 -1.125 15.625 C-1.37636719 17.40777344 -1.37636719 17.40777344 -1.6328125 19.2265625 C-1.75398437 20.14179688 -1.87515625 21.05703125 -2 22 C-2.66 22 -3.32 22 -4 22 C-4.87510383 27.47859123 -5.29024034 32.89857799 -5.5625 38.4375 C-5.60568359 39.26443359 -5.64886719 40.09136719 -5.69335938 40.94335938 C-5.79838033 42.96209549 -5.89958559 44.98102951 -6 47 C-6.33 47 -6.66 47 -7 47 C-7.46011436 30.21434656 -5.83939359 15.91753481 0 0 Z " fill="#CF8848" transform="translate(146,193)"/>
<path d="M0 0 C0.66 0 1.32 0 2 0 C2.33 0.66 2.66 1.32 3 2 C3.99 2.33 4.98 2.66 6 3 C6.12375 3.5775 6.2475 4.155 6.375 4.75 C7.58343334 9.10036003 11.37963794 11.58642529 15 14 C15 14.66 15 15.32 15 16 C15.61875 16.103125 16.2375 16.20625 16.875 16.3125 C19 17 19 17 21 20 C21.804375 20.268125 22.60875 20.53625 23.4375 20.8125 C26.93047494 22.4311957 27.5673563 24.5314942 29 28 C22.72451951 25.87479296 18.7179531 21.49362249 14 17 C12.77603516 15.83791016 12.77603516 15.83791016 11.52734375 14.65234375 C7.13900048 10.38121833 3.32541891 6.14903574 0 1 C0 0.67 0 0.34 0 0 Z " fill="#D48633" transform="translate(154,280)"/>
<path d="M0 0 C3.46941546 0.45822468 6.67395049 0.89131683 10 2 C7.68860831 10.61703042 4.39204534 18.76688023 1 27 C0.67 26.01 0.34 25.02 0 24 C-2.00016466 22.79117904 -2.00016466 22.79117904 -4 22 C-2.68 22 -1.36 22 0 22 C0.19335938 21.31292969 0.38671875 20.62585938 0.5859375 19.91796875 C0.97652344 18.56638672 0.97652344 18.56638672 1.375 17.1875 C1.63023437 16.29417969 1.88546875 15.40085937 2.1484375 14.48046875 C3 12 3 12 5 9 C5.58350505 6.54290625 5.58350505 6.54290625 5 4 C2.60140956 1.66369252 2.60140956 1.66369252 0 0 Z " fill="#DE7831" transform="translate(198,292)"/>
<path d="M0 0 C1 3 1 3 -0.21484375 5.69921875 C-0.78332031 6.68535156 -1.35179687 7.67148437 -1.9375 8.6875 C-2.78634766 10.17830078 -2.78634766 10.17830078 -3.65234375 11.69921875 C-4.09707031 12.45847656 -4.54179687 13.21773438 -5 14 C-4.67 14.33 -4.34 14.66 -4 15 C-3.95936168 16.66617115 -3.957279 18.33388095 -4 20 C-4.66 20 -5.32 20 -6 20 C-6 20.66 -6 21.32 -6 22 C-5.01 22.99 -4.02 23.98 -3 25 C-6.3 24.67 -9.6 24.34 -13 24 C-4.42553191 7.85106383 -4.42553191 7.85106383 0 0 Z " fill="#DC7D30" transform="translate(217,296)"/>
<path d="M0 0 C1.3058334 3.92128522 0.38030356 5.97831091 -1.40039062 9.68359375 C-1.74263672 10.36550781 -2.08488281 11.04742187 -2.4375 11.75 C-2.77587891 12.44738281 -3.11425781 13.14476563 -3.46289062 13.86328125 C-4.29806458 15.58068121 -5.14765424 17.29105738 -6 19 C-6.66 18.01 -7.32 17.02 -8 16 C-9.65 16.99 -11.3 17.98 -13 19 C-11.42154289 15.6868029 -9.57873709 12.6055035 -7.625 9.5 C-7.03976562 8.5615625 -6.45453125 7.623125 -5.8515625 6.65625 C-4.09180703 4.13170628 -2.24387787 2.095604 0 0 Z " fill="#8B3739" transform="translate(281,112)"/>
<path d="M0 0 C3.45386085 3.05781814 3.46787544 5.43893237 4 10 C5.09034501 15.00212035 5.09034501 15.00212035 8 19 C8.1953125 21.3828125 8.1953125 21.3828125 8.125 24.125 C8.09792969 25.49011719 8.09792969 25.49011719 8.0703125 26.8828125 C8.03550781 27.93082031 8.03550781 27.93082031 8 29 C5.27981721 26.27981721 4.54871544 23.15264398 3.4375 19.5625 C3.21425049 18.84835937 2.99100098 18.13421875 2.76098633 17.3984375 C1.03391522 11.63161182 0.14056451 6.03149545 0 0 Z " fill="#D68D44" transform="translate(140,240)"/>
<path d="M0 0 C1.43739513 -0.02712066 2.87493863 -0.04645067 4.3125 -0.0625 C5.51326172 -0.07990234 5.51326172 -0.07990234 6.73828125 -0.09765625 C9 0 9 0 12 1 C12.33 2.65 12.66 4.3 13 6 C15.31 6 17.62 6 20 6 C20 7.32 20 8.64 20 10 C20.99 10 21.98 10 23 10 C23 11.32 23 12.64 23 14 C19.8142716 12.52742074 17.13354409 10.7055768 14.3125 8.625 C9.76179824 5.38609042 5.19573628 3.02056411 0 1 C0 0.67 0 0.34 0 0 Z " fill="#D6853A" transform="translate(263,164)"/>
<path d="M0 0 C5.40839285 5.23938057 10.81656539 10.72484808 15 17 C14.67 18.32 14.34 19.64 14 21 C10.7 21.66 7.4 22.32 4 23 C5.95216435 21.04783565 7.53199953 20.15173355 10 19 C10.28333992 15.94206733 10.26766276 14.41359396 8.57421875 11.796875 C7.95160156 11.12140625 7.32898438 10.4459375 6.6875 9.75 C6.07261719 9.06421875 5.45773437 8.3784375 4.82421875 7.671875 C3.00269721 5.77431489 3.00269721 5.77431489 0 5 C0 3.35 0 1.7 0 0 Z " fill="#C98139" transform="translate(304,163)"/>
<path d="M0 0 C2.31 0 4.62 0 7 0 C3.4526332 3.65822202 -0.27699731 7.01663945 -4.12890625 10.3515625 C-6.17403506 12.15332526 -8.11249792 14.033852 -10 16 C-10.75 13.75 -10.75 13.75 -11 11 C-9.1875 8.9375 -9.1875 8.9375 -7 7 C-5.76487921 4.86690808 -5.76487921 4.86690808 -5 3 C-4.01 3.66 -3.02 4.32 -2 5 C-1.34 3.35 -0.68 1.7 0 0 Z " fill="#DC802A" transform="translate(188,171)"/>
<path d="M0 0 C0.50423019 5.29441695 -0.81076967 7.81413519 -4 12 C-4.33 10.68 -4.66 9.36 -5 8 C-6.65 8.66 -8.3 9.32 -10 10 C-8.78765268 5.28531599 -6.41445146 3.52327801 -2.55859375 0.91796875 C-1 0 -1 0 0 0 Z " fill="#821C1A" transform="translate(274,127)"/>
<path d="M0 0 C0.87785156 0.36480469 1.75570313 0.72960937 2.66015625 1.10546875 C3.53542969 1.46253906 4.41070312 1.81960938 5.3125 2.1875 C7.72265625 3.29296875 7.72265625 3.29296875 10.72265625 5.29296875 C8.74265625 5.62296875 6.76265625 5.95296875 4.72265625 6.29296875 C4.72265625 5.63296875 4.72265625 4.97296875 4.72265625 4.29296875 C3.07265625 4.29296875 1.42265625 4.29296875 -0.27734375 4.29296875 C-0.27734375 3.63296875 -0.27734375 2.97296875 -0.27734375 2.29296875 C-0.93734375 2.29296875 -1.59734375 2.29296875 -2.27734375 2.29296875 C-2.54546875 2.91171875 -2.81359375 3.53046875 -3.08984375 4.16796875 C-4.27734375 6.29296875 -4.27734375 6.29296875 -7.27734375 8.29296875 C-8.26734375 7.96296875 -9.25734375 7.63296875 -10.27734375 7.29296875 C-9.32312567 6.14370609 -8.3638233 4.99866334 -7.40234375 3.85546875 C-6.86867188 3.21738281 -6.335 2.57929688 -5.78515625 1.921875 C-3.69056687 -0.34093269 -3.01917018 -0.937341 0 0 Z " fill="#D0833D" transform="translate(299.27734375,269.70703125)"/>
<path d="M0 0 C0.93423645 3.01031744 1.04449911 3.86650268 0 7 C-5.46511628 12 -5.46511628 12 -8 12 C-8 12.99 -8 13.98 -8 15 C-9.98 15.99 -9.98 15.99 -12 17 C-10.53416665 12.45928635 -7.95468267 9.23733031 -4.875 5.6875 C-4.40707031 5.13771484 -3.93914062 4.58792969 -3.45703125 4.02148438 C-2.31047517 2.67603591 -1.15602549 1.337321 0 0 Z " fill="#D3863C" transform="translate(165,165)"/>
<path d="M0 0 C0.33 0.33 0.66 0.66 1 1 C2.84891946 1.23363881 4.70488031 1.41303635 6.5625 1.5625 C7.57441406 1.64628906 8.58632812 1.73007812 9.62890625 1.81640625 C10.80259766 1.90728516 10.80259766 1.90728516 12 2 C12 2.33 12 2.66 12 3 C2.36774517 3.26349633 -6.5005349 2.61693023 -16 1 C-16 0.67 -16 0.34 -16 0 C-10.41153825 -0.82369618 -5.5526875 -1.1568099 0 0 Z " fill="#D2853A" transform="translate(230,321)"/>
<path d="M0 0 C3.62492967 -0.05891984 7.24973334 -0.0939009 10.875 -0.125 C11.88820312 -0.14175781 12.90140625 -0.15851563 13.9453125 -0.17578125 C20.54557349 -0.21809062 26.58825353 0.42328275 33 2 C33 2.99 33 3.98 33 5 C31.783125 4.67 30.56625 4.34 29.3125 4 C26.1146671 3.18920194 23.30971581 2.89970558 20 3 C19.67 2.67 19.34 2.34 19 2 C17.58672053 1.84379445 16.1664541 1.74943827 14.74609375 1.68359375 C13.89208984 1.64169922 13.03808594 1.59980469 12.15820312 1.55664062 C11.26037109 1.51732422 10.36253906 1.47800781 9.4375 1.4375 C8.53580078 1.39431641 7.63410156 1.35113281 6.70507812 1.30664062 C4.47021515 1.20021858 2.23523692 1.09820012 0 1 C0 0.67 0 0.34 0 0 Z " fill="#C67836" transform="translate(228,136)"/>
<path d="M0 0 C1.32 0.33 2.64 0.66 4 1 C4 1.66 4 2.32 4 3 C4.99 3 5.98 3 7 3 C7.33 3.99 7.66 4.98 8 6 C8.66 6.66 9.32 7.32 10 8 C10.33 8.66 10.66 9.32 11 10 C13.64 9.67 16.28 9.34 19 9 C16.8125 11.0625 16.8125 11.0625 14 13 C10.71753079 12.85842385 9.38374174 12.38604881 7.05078125 10.0390625 C6.47714844 9.24242187 5.90351563 8.44578125 5.3125 7.625 C4.73113281 6.83351562 4.14976562 6.04203125 3.55078125 5.2265625 C2.34702371 3.49824562 1.1683139 1.75247085 0 0 Z " fill="#CA823F" transform="translate(286,178)"/>
<path d="M0 0 C1.43088528 2.86177057 0.59991697 4.93375773 0 8 C-0.33 7.34 -0.66 6.68 -1 6 C-3.49552484 6.78130071 -3.49552484 6.78130071 -6 8 C-6.33 8.99 -6.66 9.98 -7 11 C-8.8125 12.25 -8.8125 12.25 -11 13 C-13.13671875 12.546875 -13.13671875 12.546875 -15 12 C-14.25556641 11.45472656 -14.25556641 11.45472656 -13.49609375 10.8984375 C-8.82396523 7.44088508 -4.37421303 3.8274364 0 0 Z " fill="#D88B3B" transform="translate(288,278)"/>
<path d="M0 0 C1.65 0.33 3.3 0.66 5 1 C4.16855469 2.42892578 4.16855469 2.42892578 3.3203125 3.88671875 C2.58836811 5.15354557 1.85660695 6.42047827 1.125 7.6875 C0.76019531 8.31333984 0.39539063 8.93917969 0.01953125 9.58398438 C-1.93741197 12.98194942 -3.65607739 16.30067619 -5 20 C-5.33 20 -5.66 20 -6 20 C-6.66460243 14.68318053 -5.04613967 12.1793577 -2.1796875 7.96875 C-0.63136764 5.38479897 -0.22349443 2.97992575 0 0 Z " fill="#C8813A" transform="translate(173,186)"/>
<path d="M0 0 C0.99 0 1.98 0 3 0 C1.52869627 4.3573226 -0.83080615 7.71934134 -3.625 11.3125 C-4.04523438 11.86228516 -4.46546875 12.41207031 -4.8984375 12.97851562 C-5.92720039 14.32292168 -6.9629009 15.66201413 -8 17 C-9 15 -9 15 -9 11 C-7.68 10.67 -6.36 10.34 -5 10 C-4.9175 9.443125 -4.835 8.88625 -4.75 8.3125 C-3.77598479 5.30928643 -2.01206229 3.4014937 0 1 C0 0.67 0 0.34 0 0 Z " fill="#E67A35" transform="translate(258,140)"/>
<path d="M0 0 C0.66 1.65 1.32 3.3 2 5 C1.34 5 0.68 5 0 5 C0 5.66 0 6.32 0 7 C-2.31 7 -4.62 7 -7 7 C-6.75 4.625 -6.75 4.625 -6 2 C-3.84898936 0.54286376 -2.59713506 0 0 0 Z " fill="#8E1911" transform="translate(269,135)"/>
<path d="M0 0 C-1.1875 1.5625 -1.1875 1.5625 -3 3 C-4.67142831 2.69142862 -6.33678518 2.35015049 -8 2 C-11.09984097 1.73062154 -14.2048402 1.58711898 -17.3125 1.4375 C-18.14845703 1.39431641 -18.98441406 1.35113281 -19.84570312 1.30664062 C-21.89696935 1.20114693 -23.9484648 1.10012685 -26 1 C-26 0.67 -26 0.34 -26 0 C-22.41713181 -0.19720979 -18.83369943 -0.38107522 -15.25 -0.5625 C-14.23421875 -0.61857422 -13.2184375 -0.67464844 -12.171875 -0.73242188 C-11.1921875 -0.78076172 -10.2125 -0.82910156 -9.203125 -0.87890625 C-8.30239258 -0.9260376 -7.40166016 -0.97316895 -6.47363281 -1.02172852 C-4.12542592 -1.00110175 -2.23793298 -0.67823071 0 0 Z " fill="#97282A" transform="translate(268,202)"/>
<path d="M0 0 C6.75 -0.125 6.75 -0.125 9 1 C8.58578031 5.83256305 6.53586014 7.82679218 3 11 C3 9.35 3 7.7 3 6 C3.66 6 4.32 6 5 6 C5 4.35 5 2.7 5 1 C3.35 1 1.7 1 0 1 C0 0.67 0 0.34 0 0 Z " fill="#CA843F" transform="translate(310,275)"/>
<path d="M0 0 C0.33 0.99 0.66 1.98 1 3 C1.226875 3.66 1.45375 4.32 1.6875 5 C2 7 2 7 0 10 C-1.66666667 10 -3.33333333 10 -5 10 C-5 6.60406522 -4.47834052 5.93380119 -2.5 3.3125 C-2.0359375 2.68988281 -1.571875 2.06726563 -1.09375 1.42578125 C-0.7328125 0.95527344 -0.371875 0.48476562 0 0 Z " fill="#8A231D" transform="translate(227,188)"/>
<path d="M0 0 C1.49753166 4.49259497 0.79556811 6.77513385 -1 11 C-1.33 11.99 -1.66 12.98 -2 14 C-2.66 14 -3.32 14 -4 14 C-4 14.66 -4 15.32 -4 16 C-4.66 15.67 -5.32 15.34 -6 15 C-5.18872921 12.87453041 -4.37594602 10.74963805 -3.5625 8.625 C-3.11003906 7.44164062 -2.65757812 6.25828125 -2.19140625 5.0390625 C-1 2 -1 2 0 0 Z " fill="#7F4852" transform="translate(186,346)"/>
<path d="M0 0 C3.43667917 2.99560805 3.50267127 5.52404142 4 10 C4.33 10.33 4.66 10.66 5 11 C5.04092937 13.33297433 5.04241723 15.66705225 5 18 C4.71125 17.401875 4.4225 16.80375 4.125 16.1875 C2.95257974 13.80672208 2.95257974 13.80672208 1 11 C0.5859375 8.30078125 0.5859375 8.30078125 0.375 5.3125 C0.30023438 4.31863281 0.22546875 3.32476562 0.1484375 2.30078125 C0.09945312 1.54152344 0.05046875 0.78226563 0 0 Z " fill="#D28239" transform="translate(140,240)"/>
<path d="M0 0 C0 2 0 2 -2.0625 4.625 C-5.65388883 7.52867608 -7.50003317 7.44117322 -12 7 C-11 4 -11 4 -9.00390625 2.83203125 C-8.19824219 2.49558594 -7.39257812 2.15914063 -6.5625 1.8125 C-5.75941406 1.46832031 -4.95632813 1.12414062 -4.12890625 0.76953125 C-2 0 -2 0 0 0 Z " fill="#D7843A" transform="translate(273,291)"/>
<path d="M0 0 C1 3 1 3 -0.21484375 5.84765625 C-0.78332031 6.90855469 -1.35179687 7.96945312 -1.9375 9.0625 C-4.18783156 12.8387983 -4.18783156 12.8387983 -5 17 C-6.32 17.33 -7.64 17.66 -9 18 C-7.45614871 13.85967154 -5.48971062 10.06446947 -3.375 6.1875 C-3.05015625 5.59001953 -2.7253125 4.99253906 -2.390625 4.37695312 C-1.59620849 2.91662865 -0.79844624 1.45812509 0 0 Z " fill="#DE7134" transform="translate(217,296)"/>
<path d="M0 0 C0.66 0 1.32 0 2 0 C2.33 0.66 2.66 1.32 3 2 C3.99 2.33 4.98 2.66 6 3 C6.12375 3.5775 6.2475 4.155 6.375 4.75 C7.29187926 8.05076533 9.58083109 9.63983521 12 12 C12.7063208 13.31275784 13.38205646 14.64339836 14 16 C8.45133926 11.583719 4.04524503 6.84039935 0 1 C0 0.67 0 0.34 0 0 Z " fill="#CA8845" transform="translate(154,280)"/>
<path d="M0 0 C0.515625 0.391875 1.03125 0.78375 1.5625 1.1875 C-3.64834821 4.34143444 -6.25224757 5.30204171 -12.4375 5.1875 C-9.45081839 1.49806977 -4.71352993 -1.57117664 0 0 Z " fill="#D2853C" transform="translate(199.4375,143.8125)"/>
<path d="M0 0 C1.32 0.66 2.64 1.32 4 2 C3.67 3.32 3.34 4.64 3 6 C-0.3 6.66 -3.6 7.32 -7 8 C-5 6 -5 6 -2.9375 5.125 C-0.79948083 4.16352629 -0.79948083 4.16352629 -0.25 1.875 C-0.1675 1.25625 -0.085 0.6375 0 0 Z " fill="#D58D39" transform="translate(315,178)"/>
<path d="M0 0 C0.88336837 2.4667645 1.1312406 3.63859372 0.22265625 6.140625 C-0.16019531 6.83671875 -0.54304688 7.5328125 -0.9375 8.25 C-1.31777344 8.95640625 -1.69804687 9.6628125 -2.08984375 10.390625 C-2.39019531 10.92171875 -2.69054687 11.4528125 -3 12 C-4 9 -4 9 -4 8 C-4.99 8.495 -4.99 8.495 -6 9 C-4.68775452 5.06326356 -3.08089673 2.77280706 0 0 Z " fill="#905259" transform="translate(281,112)"/>
<path d="M0 0 C1.46132217 2.92264434 2.34099246 4.92463146 3 8 C1.02 8.33 -0.96 8.66 -3 9 C-2.01 6.03 -1.02 3.06 0 0 Z " fill="#89231D" transform="translate(227,246)"/>
<path d="M0 0 C0.99 0.66 1.98 1.32 3 2 C2.75 4.375 2.75 4.375 2 7 C0 8.125 0 8.125 -2 9 C-2.33 9.99 -2.66 10.98 -3 12 C-2.40075776 7.80530429 -1.42500059 3.99000166 0 0 Z " fill="#D88B43" transform="translate(146,193)"/>
<path d="M0 0 C0.99 0.33 1.98 0.66 3 1 C2.5 2.875 2.5 2.875 1 5 C-1.65177645 5.98494554 -4.20547307 6.45912382 -7 7 C-4.78071806 4.09197539 -3.07030857 2.04687238 0 0 Z " fill="#D88539" transform="translate(173,158)"/>
<path d="M0 0 C0 0.66 0 1.32 0 2 C-2.5614657 4.29648649 -3.47967572 5 -7 5 C-7 5.99 -7 6.98 -7 8 C-8.98 8.33 -10.96 8.66 -13 9 C-4.5 0 -4.5 0 0 0 Z " fill="#CD8641" transform="translate(187,149)"/>
<path d="M0 0 C2.97 0.495 2.97 0.495 6 1 C4.60667426 4.36720387 3.0210714 5.9859524 0 8 C0.66 6.35 1.32 4.7 2 3 C1.34 3 0.68 3 0 3 C0 2.01 0 1.02 0 0 Z " fill="#D17F36" transform="translate(306,286)"/>
<path d="M0 0 C1.60585493 0.62064937 3.20962617 1.2466918 4.8125 1.875 C5.70582031 2.22304688 6.59914063 2.57109375 7.51953125 2.9296875 C10 4 10 4 13 6 C11.02 6.33 9.04 6.66 7 7 C7 6.34 7 5.68 7 5 C5.35 5 3.7 5 2 5 C1.34 3.35 0.68 1.7 0 0 Z " fill="#D18749" transform="translate(297,269)"/>
<path d="M0 0 C-2.6860286 1.79068573 -4.6626589 2.66055791 -7.6875 3.625 C-8.49574219 3.88539063 -9.30398437 4.14578125 -10.13671875 4.4140625 C-10.75160156 4.60742188 -11.36648437 4.80078125 -12 5 C-12 3.68 -12 2.36 -12 1 C-7.95858806 0.36605303 -4.0934693 -0.12404452 0 0 Z " fill="#D18438" transform="translate(214,162)"/>
<path d="M0 0 C1.20628008 2.33214148 2.1654738 4.49642139 3 7 C1.824375 7.12375 1.824375 7.12375 0.625 7.25 C-2.14749104 7.72806339 -2.14749104 7.72806339 -3.3125 10.0625 C-3.539375 10.701875 -3.76625 11.34125 -4 12 C-3.33501617 7.61110675 -1.81242323 4.0188515 0 0 Z " fill="#913637" transform="translate(217,270)"/>
<path d="M0 0 C1.305239 3.91571701 0.32239848 5.03892997 -1.4375 8.6875 C-1.91058594 9.68136719 -2.38367188 10.67523438 -2.87109375 11.69921875 C-3.42990234 12.83810547 -3.42990234 12.83810547 -4 14 C-5.15957207 10.52128379 -4.77456651 9.65780355 -3.5625 6.3125 C-3.27503906 5.50425781 -2.98757812 4.69601563 -2.69140625 3.86328125 C-2.46324219 3.24839844 -2.23507813 2.63351563 -2 2 C-1.34 2 -0.68 2 0 2 C0 1.34 0 0.68 0 0 Z " fill="#81292B" transform="translate(256,169)"/>
<path d="M0 0 C0.33 0 0.66 0 1 0 C1.36625971 4.51720311 1.36625971 4.51720311 -0.375 6.8125 C-2 8 -2 8 -4 8 C-4 8.66 -4 9.32 -4 10 C-4.66 9.67 -5.32 9.34 -6 9 C-5.02501855 7.4972763 -4.04490611 5.99788037 -3.0625 4.5 C-2.51722656 3.6646875 -1.97195312 2.829375 -1.41015625 1.96875 C-0.94480469 1.3190625 -0.47945312 0.669375 0 0 Z " fill="#86292A" transform="translate(210,212)"/>
<path d="M0 0 C1 2 1 2 0.51171875 4.09375 C0.10373047 5.28484375 0.10373047 5.28484375 -0.3125 6.5 C-0.57675781 7.2940625 -0.84101563 8.088125 -1.11328125 8.90625 C-2 11 -2 11 -4 13 C-3.67 9.7 -3.34 6.4 -3 3 C-2.34 3 -1.68 3 -1 3 C-0.67 2.01 -0.34 1.02 0 0 Z " fill="#7C1918" transform="translate(251,178)"/>
<path d="M0 0 C4.10958767 1.45044271 7.43258745 3.51110752 11 6 C9.68 6.33 8.36 6.66 7 7 C7 6.34 7 5.68 7 5 C4.03 4.505 4.03 4.505 1 4 C0.67 2.68 0.34 1.36 0 0 Z " fill="#CD8043" transform="translate(282,147)"/>
<path d="M0 0 C0.99 0 1.98 0 3 0 C2.38461538 5.53846154 2.38461538 5.53846154 0.4375 7.875 C-0.036875 8.24625 -0.51125 8.6175 -1 9 C-2.60031344 5.79937313 -1.03173691 3.27728194 0 0 Z " fill="#6E1A1F" transform="translate(187,344)"/>
<path d="M0 0 C0.99 0 1.98 0 3 0 C2 3 2 3 0.15234375 4.16796875 C-0.57855469 4.50441406 -1.30945313 4.84085937 -2.0625 5.1875 C-2.79597656 5.53167969 -3.52945312 5.87585938 -4.28515625 6.23046875 C-5.13400391 6.61138672 -5.13400391 6.61138672 -6 7 C-6.33 6.01 -6.66 5.02 -7 4 C-6.01 3.67 -5.02 3.34 -4 3 C-3.34 3.33 -2.68 3.66 -2 4 C-2 3.34 -2 2.68 -2 2 C-1.34 2 -0.68 2 0 2 C0 1.34 0 0.68 0 0 Z " fill="#CE8034" transform="translate(289,305)"/>
<path d="M0 0 C0.66 0.66 1.32 1.32 2 2 C-0.31 2.66 -2.62 3.32 -5 4 C-5 4.66 -5 5.32 -5 6 C-5.99 6 -6.98 6 -8 6 C-7.67 4.35 -7.34 2.7 -7 1 C-4.69 1.33 -2.38 1.66 0 2 C0 1.34 0 0.68 0 0 Z " fill="#D87D28" transform="translate(313,181)"/>
<path d="M0 0 C2.31 0 4.62 0 7 0 C4.19195732 2.96404505 1.81684226 5.44499019 -2 7 C-1.34 4.69 -0.68 2.38 0 0 Z " fill="#CD8337" transform="translate(188,171)"/>
<path d="M0 0 C0.33 1.32 0.66 2.64 1 4 C0.34 4 -0.32 4 -1 4 C-1.0825 4.61875 -1.165 5.2375 -1.25 5.875 C-2 8 -2 8 -4.0625 9.25 C-4.701875 9.4975 -5.34125 9.745 -6 10 C-4.6302836 6.00499382 -2.74277578 3.19990508 0 0 Z " fill="#872626" transform="translate(244,164)"/>
<path d="M0 0 C3.46941546 0.45822468 6.67395049 0.89131683 10 2 C9.67 3.65 9.34 5.3 9 7 C8.34 6.01 7.68 5.02 7 4 C6.01 4 5.02 4 4 4 C3.67 3.34 3.34 2.68 3 2 C2.01 1.34 1.02 0.68 0 0 Z " fill="#D67C3B" transform="translate(198,292)"/>
<path d="M0 0 C0.33 0.66 0.66 1.32 1 2 C0 5 0 5 -1.8125 6.25 C-4 7 -4 7 -8 6 C-5.36 4.02 -2.72 2.04 0 0 Z " fill="#D28B48" transform="translate(281,284)"/>
<path d="M0 0 C0.66 0 1.32 0 2 0 C1.49701212 4.40114397 -0.08772731 6.71195019 -3 10 C-2.67 7.36 -2.34 4.72 -2 2 C-1.34 2 -0.68 2 0 2 C0 1.34 0 0.68 0 0 Z " fill="#832021" transform="translate(243,245)"/>
<path d="M0 0 C0.6875 1.8125 0.6875 1.8125 1 4 C-0.4375 5.75 -0.4375 5.75 -2 7 C-2.99 6.34 -3.98 5.68 -5 5 C-4.67 4.01 -4.34 3.02 -4 2 C-3.34 2.33 -2.68 2.66 -2 3 C-1.34 2.01 -0.68 1.02 0 0 Z " fill="#911C18" transform="translate(247,239)"/>
<path d="M0 0 C0.96516243 3.00272755 1.22393475 5.04215769 0 8 C-0.99 8.33 -1.98 8.66 -3 9 C-3.33 8.01 -3.66 7.02 -4 6 C-2.0625 2.8125 -2.0625 2.8125 0 0 Z " fill="#832621" transform="translate(237,174)"/>
<path d="M0 0 C3.77727089 1.81309003 7.37269822 3.9073259 11 6 C8 7 8 7 6.2109375 6.328125 C5.60507813 5.97234375 4.99921875 5.6165625 4.375 5.25 C3.45847656 4.73179687 3.45847656 4.73179687 2.5234375 4.203125 C1 3 1 3 0 0 Z " fill="#C58844" transform="translate(190,285)"/>
<path d="M0 0 C0.33 0 0.66 0 1 0 C0.67 2.31 0.34 4.62 0 7 C-1.32 6.67 -2.64 6.34 -4 6 C-2.69593116 3.98079663 -1.36176581 1.98075027 0 0 Z " fill="#9A2103" transform="translate(261,141)"/>
<path d="M0 0 C0.66 0.66 1.32 1.32 2 2 C0.68 4.31 -0.64 6.62 -2 9 C-2.66 7.68 -3.32 6.36 -4 5 C-2.68 4.34 -1.36 3.68 0 3 C0 2.01 0 1.02 0 0 Z " fill="#831D1B" transform="translate(261,213)"/>
<path d="M0 0 C5.53846154 0.61538462 5.53846154 0.61538462 7.875 2.5625 C8.431875 3.2740625 8.431875 3.2740625 9 4 C8.01 4.495 8.01 4.495 7 5 C4.5249829 3.88568235 2.32116581 2.41849022 0 1 C0 0.67 0 0.34 0 0 Z " fill="#D4843A" transform="translate(183,308)"/>
<path d="M0 0 C0.99 1.32 1.98 2.64 3 4 C1.625 5.5 1.625 5.5 0 7 C-0.66 7 -1.32 7 -2 7 C-1.125 2.25 -1.125 2.25 0 0 Z " fill="#952F2E" transform="translate(211,285)"/>
<path d="M0 0 C0.33 0.66 0.66 1.32 1 2 C-0.32 3.65 -1.64 5.3 -3 7 C-3 6.34 -3 5.68 -3 5 C-3.66 4.67 -4.32 4.34 -5 4 C-4.34 4 -3.68 4 -3 4 C-3.33 3.01 -3.66 2.02 -4 1 C-2.68 0.67 -1.36 0.34 0 0 Z " fill="#912322" transform="translate(225,281)"/>
<path d="M0 0 C1.60031344 3.20062687 0.03173691 5.72271806 -1 9 C-1.99 8.67 -2.98 8.34 -4 8 C-2.87548273 5.0280615 -1.77706209 2.66559313 0 0 Z " fill="#6E1218" transform="translate(278,117)"/>
<path d="M0 0 C0.66 0.33 1.32 0.66 2 1 C1.67 2.65 1.34 4.3 1 6 C0.01 6 -0.98 6 -2 6 C-1.34 4.02 -0.68 2.04 0 0 Z " fill="#881310" transform="translate(197,325)"/>
<path d="M0 0 C0.33 0.99 0.66 1.98 1 3 C1.99 3.33 2.98 3.66 4 4 C2 5 0 6 -2 7 C-1.34 4.69 -0.68 2.38 0 0 Z " fill="#861108" transform="translate(219,268)"/>
<path d="M0 0 C0.66 0.33 1.32 0.66 2 1 C0.84826645 3.46800047 -0.04783565 5.04783565 -2 7 C-2.33 5.35 -2.66 3.7 -3 2 C-2.01 1.34 -1.02 0.68 0 0 Z " fill="#D37F31" transform="translate(180,180)"/>
</svg>
